# xmcd
#
# Track frame offsets:
#	151
#	22357
#	42199
#	68257
#	87022
#	107869
#	129522
#	152458
#	171861
#	188194
#	211518
#	232237
#	253463
#	275254
#	300479
#
# Disc length: 4407 seconds
#
# Revision: 0
# Processed by: cddbd v1.4PL0 Copyright (c) Steve Scherf et al.
# Submitted via: dBpowerAMP V4.0
#
DISCID=c711350f
DTITLE=Celine Dion - The Greatest Hits
DYEAR=1900
DGENRE=Blues
TTITLE0=Tell Him (Duet With Barbara Streisand)
TTITLE1=Falling Into You
TTITLE2=The Power of Love
TTITLE3=Beauty And The Beast (Duet With Peabo Bryson)
TTITLE4=Because You Loved Me
TTITLE5=Think Twince
TTITLE6=The Reason
TTITLE7=Pour Que tu M'aimes Encore
TTITLE8=Misled
TTITLE9=All by Myself
TTITLE10=Where Does my Heart Beat Now
TTITLE11=My Heart Will go On
TTITLE12=Only The Road
TTITLE13=It's All Coming Back to me Now
TTITLE14=Call The Man
EXTD=
EXTT0=
EXTT1=
EXTT2=
EXTT3=
EXTT4=
EXTT5=
EXTT6=
EXTT7=
EXTT8=
EXTT9=
EXTT10=
EXTT11=
EXTT12=
EXTT13=
EXTT14=
PLAYORDER=
